<?xml version="1.0" encoding="utf-8"?>
<!-- Generator: Adobe Illustrator 21.0.2, SVG Export Plug-In . SVG Version: 6.00 Build 0)  -->
<svg version="1.1" id="Layer_1" xmlns="http://www.w3.org/2000/svg" xmlns:xlink="http://www.w3.org/1999/xlink" x="0px" y="0px"
	 viewBox="0 0 392.5 71.2" style="enable-background:new 0 0 392.5 71.2;" xml:space="preserve">
<style type="text/css">
	.st0{display:none;fill:#212121;}
	.st1{fill:#BF0A30;}
</style>
<rect x="-175.2" y="73.5" class="st0" width="598.7" height="268.5"/>
<g>
	<path class="st1" d="M0,54.1V17c0-10.7,5.5-17,16-17s4.3,0,16.7,0L31,9.9c-5.5,0-11.5,0-14.7,0c-3.3,0-5.4,1.9-5.4,6.4v38.6
		c0,4.5,2.2,6.3,5.4,6.3c3.3,0,125.2,0,128.9,0v9.9c0,0.1-118.7,0-129.2,0S0,64.8,0,54.1z"/>
</g>
<g>
	<path class="st1" d="M37,0.1h12.2l9.4,57.5h-9L48,46.2v0.2H37.7L36,57.6h-8.4L37,0.1z M46.9,38.5l-4-28.4h-0.2l-3.9,28.4H46.9z"/>
	<path class="st1" d="M63,0.1h13.4c9.4,0,13.4,4.4,13.4,13.2v3.5c0,5.9-1.9,9.7-5.9,11.3v0.2c4.5,1.4,6,5.7,6,12.2v10.1
		c0,2.8,0.1,4.8,1,7h-9.2c-0.5-1.5-0.8-2.4-0.8-7.1V40c0-5.3-1.6-7.1-5.7-7.1H72v24.7h-9V0.1z M75.3,24.7c3.4,0,5.4-1.5,5.4-6.1
		v-4.4c0-4.1-1.4-5.9-4.6-5.9H72v16.4H75.3z"/>
	<path class="st1" d="M96.1,0.1h13.4c9.4,0,13.4,4.4,13.4,13.2v3.5c0,5.9-1.9,9.7-5.9,11.3v0.2c4.5,1.4,6,5.7,6,12.2v10.1
		c0,2.8,0.1,4.8,1,7h-9.2c-0.5-1.5-0.8-2.4-0.8-7.1V40c0-5.3-1.6-7.1-5.7-7.1h-3.1v24.7h-9V0.1z M108.4,24.7c3.4,0,5.4-1.5,5.4-6.1
		v-4.4c0-4.1-1.4-5.9-4.6-5.9h-4.1v16.4H108.4z"/>
	<path class="st1" d="M136.2,33.1l-10.9-33h9.6l6.2,21.1h0.2l6.2-21.1h8.8l-10.9,33v24.5h-9V33.1z"/>
</g>
<g>
	<path class="st1" d="M170.4,0.1V10h11.3v59.2h10.8V10l54.1,0.1c1.2-4.7,3.8-8.1,7.7-10L170.4,0.1z"/>
</g>
<g>
	<path class="st1" d="M297,0.1v9.9h11.3v59.2h10.8V9.9l37.5,0.1c1.1-4.6,3.6-8,7.3-10L297,0.1z"/>
</g>
<g>
	<path class="st1" d="M199.4,13.6h9v22.6h9.7V13.6h9v55.6h-9v-25h-9.7v25h-9V13.6z"/>
	<path class="st1" d="M233.9,13.6h9v55.6h-9V13.6z"/>
</g>
<g>
	<path class="st1" d="M249.7,53.7v-3.9H260v4.7c0,4.9,2.2,6.7,5.6,6.7c3.5,0,5.6-1.8,5.6-6.9c0-5.7-2.2-9.4-9.3-15.6
		c-9.1-8-12-13.6-12-21.5c0-10.8,5.6-17.2,16.2-17.2c10.6,0,15.8,6.3,15.8,17.4v2.9h-10.3v-3.6c0-4.9-2-6.8-5.4-6.8
		c-3.5,0-5.4,1.9-5.4,6.6c0,5,2.3,8.7,9.4,14.9c9.1,8,11.9,13.5,11.9,22.1c0,11.2-5.7,17.6-16.4,17.6
		C255.1,71.1,249.7,64.8,249.7,53.7z"/>
</g>
<g>
	<path class="st1" d="M325.3,55.5V27.1c0-8.6,4.8-13.6,13.7-13.6c8.9,0,13.7,4.9,13.7,13.6v28.4c0,8.6-4.8,13.6-13.7,13.6
		C330.2,69,325.3,64.1,325.3,55.5z M343.7,56V26.5c0-3.9-1.8-5.3-4.7-5.3c-2.9,0-4.7,1.5-4.7,5.3V56c0,3.9,1.8,5.3,4.7,5.3
		C341.9,61.3,343.7,59.9,343.7,56z"/>
</g>
<g>
	<path class="st1" d="M359.5,53.8V17.5c0-11,5.8-17.4,16.5-17.4c10.6,0,16.5,6.3,16.5,17.4v36.3c0,11-5.8,17.4-16.5,17.4
		C365.3,71.2,359.5,64.9,359.5,53.8z M381.6,54.5V16.8c0-4.9-2.2-6.8-5.6-6.8c-3.5,0-5.6,1.9-5.6,6.8v37.7c0,4.9,2.2,6.8,5.6,6.8
		C379.4,61.3,381.6,59.5,381.6,54.5z"/>
</g>
</svg>
